<svg width="22" height="28" viewBox="0 0 22 28" fill="none" xmlns="http://www.w3.org/2000/svg">
<path fill-rule="evenodd" clip-rule="evenodd" d="M10.7527 0.455521C9.81491 0.455521 9.05469 1.21575 9.05469 2.15353V2.26674H8.03772C7.09993 2.26674 6.33971 3.02697 6.33971 3.96475V4.19115C6.33971 5.12894 7.09993 5.88916 8.03772 5.88916H13.6978C14.6355 5.88916 15.3958 5.12894 15.3958 4.19115V3.96475C15.3958 3.02697 14.6355 2.26674 13.6978 2.26674H12.6771V2.15353C12.6771 1.21575 11.9169 0.455521 10.9791 0.455521H10.7527ZM0 3.96475C0 3.02697 0.760227 2.26674 1.69801 2.26674H4.09787C5.03565 2.26674 5.79588 3.02697 5.79588 3.96475V5.09666C5.79588 6.03444 6.5561 6.79467 7.49389 6.79467H14.2426C15.1804 6.79467 15.9406 6.03444 15.9406 5.09666V3.96481C15.9406 3.02702 16.7008 2.2668 17.6386 2.2668H20.0385C20.9763 2.2668 21.7365 3.02702 21.7365 3.96481V9.87291L21.7363 9.87343C21.7362 9.8737 21.7359 9.87389 21.7355 9.87389L21.7351 9.87399C21.7348 9.87411 21.7347 9.87432 21.7346 9.87457C21.7345 9.87466 21.7345 9.87476 21.7345 9.87486V25.9256C21.7345 26.8634 20.9743 27.6236 20.0365 27.6236H1.69801C0.760223 27.6236 0 26.8634 0 25.9256V9.87383V6.79467V3.96475Z" fill="white"/>
<path d="M10.6595 9.30537C10.9566 9.24877 11.2538 9.26292 11.5509 9.34782C12.216 9.51762 12.6688 9.9209 12.9093 10.5577C12.9659 10.7699 12.9518 11.2086 12.8669 11.8736C12.8103 12.2415 12.6476 13.2957 12.3787 15.0362C11.9825 17.6115 11.7349 18.9416 11.6358 19.0265C11.5368 19.0689 11.1972 19.076 10.617 19.0477C10.5038 19.0477 10.4402 19.0406 10.426 19.0265C10.3553 18.984 10.2916 18.8213 10.235 18.5383C10.1925 18.2836 10.0086 17.1162 9.68313 15.0362C9.27278 12.3476 9.08175 10.9114 9.11005 10.7275C9.11005 10.6992 9.1242 10.6426 9.1525 10.5577C9.33645 9.96335 9.76803 9.56715 10.4472 9.36905C10.518 9.34075 10.5887 9.31952 10.6595 9.30537ZM10.6807 20.4273C10.9213 20.3707 11.1972 20.3849 11.5085 20.4698C12.1311 20.6254 12.5627 21.0075 12.8032 21.6159C12.8457 21.6867 12.874 21.7645 12.8881 21.8494C12.973 22.1749 12.973 22.4933 12.8881 22.8046C12.7183 23.4555 12.3221 23.8941 11.6995 24.1205C11.6288 24.1488 11.5651 24.17 11.5085 24.1842C11.183 24.2691 10.8647 24.2691 10.5534 24.1842C9.90245 24.0144 9.4638 23.6182 9.2374 22.9956C9.2091 22.9248 9.18788 22.8612 9.17373 22.8046C9.08882 22.4933 9.08882 22.1749 9.17373 21.8494C9.28693 21.4249 9.49918 21.0924 9.81048 20.8518C10.051 20.6537 10.3411 20.5122 10.6807 20.4273Z" fill="#222543"/>
</svg>
