<svg width="26" height="32" viewBox="0 0 26 32" fill="none" xmlns="http://www.w3.org/2000/svg">
<path fill-rule="evenodd" clip-rule="evenodd" d="M12.6666 0C11.5621 0 10.6666 0.895432 10.6666 2V2.13333H9.46663C8.36206 2.13333 7.46662 3.02876 7.46662 4.13333V4.4C7.46662 5.50457 8.36206 6.4 9.46663 6.4H16.1333C17.2379 6.4 18.1333 5.50456 18.1333 4.39999V4.13333C18.1333 3.02876 17.2379 2.13333 16.1333 2.13333H14.9333V2C14.9333 0.895431 14.0379 0 12.9333 0H12.6666ZM0 4.13333C0 3.02876 0.895433 2.13333 2 2.13333H4.82667C5.93124 2.13333 6.82667 3.02876 6.82667 4.13333V5.46665C6.82667 6.57122 7.7221 7.46665 8.82667 7.46665H16.7733C17.8779 7.46665 18.7733 6.57122 18.7733 5.46665V4.13333C18.7733 3.02876 19.6688 2.13333 20.7733 2.13333H23.6C24.7046 2.13333 25.6 3.02876 25.6 4.13332L25.6 7.46665V30C25.6 31.1046 24.7046 32 23.6 32H2C0.895432 32 0 31.1046 0 30V11.0933V7.46665V4.13333Z" fill="white"/>
</svg>
